<?xml version="1.0" encoding="utf-8"?>
<!-- Generator: Adobe Illustrator 16.0.0, SVG Export Plug-In . SVG Version: 6.00 Build 0)  -->
<!DOCTYPE svg PUBLIC "-//W3C//DTD SVG 1.1//EN" "http://www.w3.org/Graphics/SVG/1.1/DTD/svg11.dtd">
<svg version="1.1" id="Layer_1" xmlns="http://www.w3.org/2000/svg" xmlns:xlink="http://www.w3.org/1999/xlink" x="0px" y="0px"
	 width="1041px" height="1000px" viewBox="0 0 1041 1000" enable-background="new 0 0 1041 1000" xml:space="preserve">
<path fill="#FFFFFF" d="M781.25,865h-572.5c-57.5,0-106.667-20.417-147.5-61.25S0,713.75,0,656.25
	c0-48.333,14.583-91.042,43.75-128.125s66.667-61.458,112.5-73.125v-7.5c0-86.667,30.625-160.417,91.875-221.25
	S382.917,135,468.75,135c66.667,0,126.875,19.375,180.625,58.125S740.833,282.5,762.5,345
	c76.667-5.833,142.292,16.875,196.875,68.125s81.875,114.792,81.875,190.625c0,71.667-25.417,133.125-76.25,184.375
	S852.917,865,781.25,865z M203.75,551.25c-26.667,0-50,10.417-70,31.25s-30,45.417-30,73.75s10.208,52.708,30.625,73.125
	S179.583,760,208.75,760h572.5c43.333,0,80.208-15.208,110.625-45.625S937.5,647.083,937.5,603.75s-15.208-80.208-45.625-110.625
	S824.583,447.5,781.25,447.5c-12.5,0-26.667,2.5-42.5,7.5l-56.25,16.25l-8.75-57.5c-9.167-50-32.917-91.458-71.25-124.375
	C564.167,256.458,519.583,240,468.75,240c-57.5,0-106.667,20.208-147.5,60.625C280.417,341.042,260,390,260,447.5
	c0,10,1.667,24.167,5,42.5l12.5,62.5L203.75,551.25z"/>
</svg>
