<svg xmlns="http://www.w3.org/2000/svg" width="1041" height="1000" viewBox="0 0 1041 1000"><path fill="#FFF" d="M781.25 865h-572.5c-57.5 0-106.667-20.417-147.5-61.25S0 713.75 0 656.25c0-48.333 14.583-91.042 43.75-128.125s66.667-61.458 112.5-73.125v-7.5c0-86.667 30.625-160.417 91.875-221.25S382.917 135 468.75 135c66.667 0 126.875 19.375 180.625 58.125S740.833 282.5 762.5 345c76.667-5.833 142.292 16.875 196.875 68.125s81.875 114.792 81.875 190.625c0 71.667-25.417 133.125-76.25 184.375S852.917 865 781.25 865zm-577.5-313.75c-26.667 0-50 10.417-70 31.25s-30 45.417-30 73.75 10.208 52.708 30.625 73.125S179.583 760 208.75 760h572.5c43.333 0 80.208-15.208 110.625-45.625S937.5 647.083 937.5 603.75s-15.208-80.208-45.625-110.625S824.583 447.5 781.25 447.5c-12.5 0-26.667 2.5-42.5 7.5l-56.25 16.25-8.75-57.5c-9.167-50-32.917-91.458-71.25-124.375S519.583 240 468.75 240c-57.5 0-106.667 20.208-147.5 60.625S260 390 260 447.5c0 10 1.667 24.167 5 42.5l12.5 62.5-73.75-1.25z"/></svg>